<svg width="156" height="36" viewBox="0 0 156 36" fill="none" xmlns="http://www.w3.org/2000/svg">
<path d="M117.423 4.09691C116.64 4.09491 115.883 4.38668 115.299 4.91613C114.715 5.44559 114.344 6.17535 114.258 6.96518C114.206 7.3342 114.233 7.71038 114.338 8.06763C114.444 8.42487 114.624 8.75464 114.867 9.03411C115.111 9.31357 115.411 9.53605 115.748 9.6861C116.084 9.83616 116.449 9.9102 116.816 9.90311C117.603 9.88939 118.358 9.58227 118.936 9.04037C119.513 8.49846 119.874 7.75972 119.949 6.96518C119.998 6.60288 119.969 6.23408 119.864 5.88428C119.759 5.53447 119.58 5.21201 119.34 4.93923C119.1 4.66645 118.804 4.44985 118.473 4.30441C118.142 4.15897 117.784 4.08818 117.423 4.09691ZM53.2983 11.3726C52.3794 11.3232 51.4603 11.4648 50.5973 11.7885C49.7343 12.1123 48.9455 12.6114 48.2795 13.2552L49.022 8.26613C49.2921 6.59337 48.4493 5.49953 46.9679 5.49953C46.098 5.50658 45.2303 5.58655 44.3735 5.73863L40.8379 29.58C41.6359 29.743 42.4484 29.8225 43.2624 29.8172C44.1322 29.8267 45.0008 29.7472 45.8549 29.58L47.4719 18.5813C47.7764 16.6045 49.022 15.3365 50.535 15.3365C52.0202 15.3365 52.6235 16.2591 52.3915 17.7963L50.6399 29.58C51.4492 29.7428 52.2727 29.8223 53.0978 29.8172C53.9572 29.8344 54.8158 29.7548 55.6579 29.58L57.5449 16.9077C58.049 13.4915 56.3318 11.3754 53.3021 11.3754L53.2983 11.3726ZM132.479 8.16352L131.671 13.5951C131.207 12.8751 130.564 12.2912 129.808 11.9017C129.052 11.5122 128.208 11.3307 127.361 11.3754C122.646 11.3754 120.827 15.0965 120.051 20.3238C119.876 21.4305 119.786 22.5494 119.783 23.6702C119.783 27.6324 121.467 30.126 125.138 30.126C126.002 30.1255 126.855 29.9361 127.64 29.5705C128.425 29.205 129.123 28.672 129.686 28.008C129.821 28.535 130.127 29.0006 130.555 29.329C130.983 29.6574 131.508 29.8295 132.045 29.8172C132.815 29.8333 133.584 29.7537 134.335 29.58L137.87 5.73863C137.082 5.58621 136.282 5.50618 135.479 5.49953C133.53 5.49953 132.787 6.18199 132.482 8.16352H132.479ZM73.8464 11.6813C73.1999 11.6435 72.5582 11.8145 72.0135 12.1697C71.4689 12.5249 71.0491 13.046 70.8147 13.6581C70.3653 12.9505 69.7466 12.3696 69.0163 11.9697C68.286 11.5697 67.4677 11.3637 66.6377 11.3707C61.9224 11.3707 60.1031 15.0918 59.329 20.3191C59.1537 21.4258 59.064 22.5447 59.0607 23.6655C59.0607 27.6276 60.7445 30.1213 64.4147 30.1213C65.2784 30.1204 66.1317 29.9307 66.9165 29.5652C67.7014 29.1997 68.3994 28.667 68.9629 28.0032C69.0967 28.5303 69.4024 28.996 69.8303 29.3245C70.2582 29.653 70.7832 29.825 71.3197 29.8125C72.0897 29.8286 72.8588 29.7489 73.6096 29.5753L76.2365 11.9167C75.4481 11.7643 74.6479 11.6842 73.8454 11.6776L73.8464 11.6813ZM88.2607 11.3707C87.3971 11.3713 86.5439 11.5606 85.759 11.9258C84.9741 12.291 84.2761 12.8234 83.7124 13.4868C83.5784 12.9598 83.2727 12.4942 82.8448 12.1657C82.417 11.8373 81.8921 11.6652 81.3556 11.6776C80.5855 11.662 79.8165 11.7423 79.0657 11.9167L75.5282 35.7608C76.317 35.9124 77.1175 35.9924 77.9203 35.9999C79.8695 35.9999 80.6121 35.3156 80.9166 33.3341L81.7251 27.9044C82.1898 28.6243 82.8324 29.2082 83.5889 29.5978C84.3454 29.9874 85.1893 30.1692 86.0367 30.125C90.752 30.125 92.5704 26.402 93.3464 21.1747C93.5216 20.068 93.6113 18.9492 93.6146 17.8283C93.6146 13.8662 91.9309 11.3735 88.2607 11.3735V11.3707ZM152.689 11.6804C152.043 11.6426 151.401 11.8136 150.857 12.1688C150.312 12.5239 149.892 13.045 149.658 13.6572C149.208 12.9495 148.59 12.3687 147.859 11.9687C147.129 11.5688 146.311 11.3627 145.481 11.3697C140.765 11.3697 138.947 15.0908 138.173 20.3181C137.996 21.4247 137.906 22.5437 137.903 23.6646C137.903 27.6267 139.587 30.1203 143.259 30.1203C144.122 30.1195 144.976 29.9299 145.761 29.5644C146.545 29.1989 147.243 28.6661 147.807 28.0023C147.94 28.5287 148.245 28.9941 148.671 29.3232C149.098 29.6522 149.621 29.8256 150.157 29.8153C150.927 29.8313 151.696 29.7516 152.447 29.5781L155.074 11.9195C154.286 11.7671 153.485 11.6871 152.683 11.6804H152.689ZM109.977 11.6804C109.039 11.6708 108.101 11.762 107.181 11.9524L104.621 17.8273C103.577 20.2522 102.672 21.5852 101.827 25.0682H101.759C101.622 22.2174 101.319 19.3774 100.85 16.5631L100.479 14.1034C100.467 13.7557 100.384 13.4143 100.236 13.1005C100.089 12.7866 99.8782 12.5072 99.6188 12.2795C99.3595 12.0519 99.0565 11.881 98.729 11.7776C98.4015 11.6742 98.0565 11.6405 97.7155 11.6785C96.8017 11.6866 95.89 11.7666 94.9884 11.9176L97.8853 29.5423C98.9389 29.754 100.011 29.8569 101.085 29.8492C102.193 29.8708 103.299 29.7679 104.385 29.5423L112.367 11.9176C111.582 11.7473 110.78 11.6671 109.976 11.6785L109.977 11.6804ZM113.849 11.9176L111.222 29.5762C112.029 29.7578 112.855 29.8375 113.681 29.8134C114.562 29.8102 115.44 29.7309 116.308 29.5762L118.935 11.9176C118.115 11.7453 117.28 11.6651 116.443 11.6785C115.573 11.6706 114.704 11.7507 113.849 11.9176ZM88.3228 20.6617C87.6174 25.3063 86.3736 26.2288 84.5506 26.2288C82.9336 26.2288 82.1929 24.7952 82.4277 23.1892L83.135 18.2717C83.1873 17.4768 83.5244 16.7288 84.0828 16.1686C84.6412 15.6084 85.3823 15.2746 86.1666 15.2302C87.9181 15.2302 88.5233 16.2214 88.5233 18.1351C88.5116 18.9809 88.4452 19.825 88.3228 20.6617ZM70.2356 18.3084L69.5292 23.2269C69.4765 24.0214 69.1392 24.7689 68.5809 25.3288C68.0225 25.8886 67.2815 26.2221 66.4976 26.2665C64.746 26.2665 64.139 25.2771 64.139 23.3634C64.1514 22.5169 64.2193 21.6722 64.3423 20.8349C65.0487 16.1903 66.2915 15.2678 68.1136 15.2678C69.7306 15.2678 70.4704 16.7024 70.2346 18.3074L70.2356 18.3084ZM130.96 18.3074L130.252 23.2259C130.2 24.0204 129.862 24.768 129.304 25.3278C128.746 25.8877 128.005 26.2212 127.221 26.2655C125.469 26.2655 124.862 25.2762 124.862 23.3624C124.875 22.516 124.943 21.6713 125.066 20.834C125.773 16.1894 127.015 15.2669 128.838 15.2669C130.455 15.2669 131.196 16.7015 130.96 18.3065V18.3074ZM149.079 18.3065L148.371 23.225C148.319 24.0193 147.982 24.7669 147.424 25.3267C146.866 25.8866 146.125 26.2202 145.342 26.2646C143.59 26.2646 142.983 25.2752 142.983 23.3615C142.995 22.5151 143.062 21.6704 143.184 20.833C143.892 16.1884 145.134 15.266 146.958 15.266C148.573 15.266 149.314 16.7005 149.079 18.3055" fill="#0054B8"/>
<path d="M17.6585 24.0654C16.3487 24.0654 15.1866 27.0438 14.8051 28.0191C14.0375 29.9874 13.3701 32.6938 14.5517 34.4202C14.9178 34.9028 15.3883 35.2936 15.927 35.5626C16.4657 35.8315 17.0581 35.9714 17.6585 35.9714C18.2589 35.9714 18.8513 35.8315 19.3899 35.5626C19.9286 35.2936 20.3991 34.9028 20.7652 34.4202C21.9459 32.6891 21.2785 29.9818 20.5118 28.0191C20.1284 27.0401 18.9663 24.0654 17.6566 24.0654" fill="#FCB812"/>
<path d="M17.6608 0.0124756C16.7721 -0.0506458 15.8828 0.126556 15.0838 0.525951C14.2847 0.925346 13.6044 1.53263 13.1125 2.28583C12.1564 3.68184 11.4417 6.43809 13.4754 11.639C14.0323 13.0689 15.731 17.4217 17.6617 17.4217C19.5924 17.4217 21.2892 13.0699 21.848 11.639C23.8771 6.43903 23.1651 3.68184 22.2128 2.28583C21.7206 1.53284 21.0403 0.925722 20.2413 0.526353C19.4423 0.126984 18.5531 -0.0503513 17.6645 0.0124756" fill="#F0402E"/>
<path d="M10.9411 22.1812L10.8974 22.186C9.041 22.313 6.63226 22.8063 5.71054 24.4348C5.46806 24.9185 5.33834 25.4522 5.33135 25.9947C5.32437 26.5373 5.44032 27.0742 5.67026 27.5641C5.9002 28.0541 6.23801 28.484 6.65762 28.8206C7.07724 29.1572 7.56746 29.3917 8.09052 29.5058C9.91076 29.8033 11.8127 28.2237 13.0797 26.8418C13.7202 26.1462 15.6648 24.0281 15.1608 22.9541C14.68 21.9261 12.0596 22.1069 10.9402 22.1812" fill="#F5821F"/>
<path d="M24.4208 22.1839H24.3772C24.0059 22.1585 23.4666 22.1208 22.8967 22.1208C21.7512 22.1208 20.4777 22.2705 20.1547 22.9549C19.6507 24.0299 21.5963 26.147 22.2349 26.8426C23.5038 28.2245 25.4001 29.8022 27.2259 29.5066C27.7489 29.3925 28.2392 29.158 28.6588 28.8214C29.0784 28.4848 29.4162 28.0549 29.6461 27.565C29.8761 27.075 29.992 26.5381 29.985 25.9955C29.9781 25.453 29.8483 24.9193 29.6059 24.4356C28.6841 22.8071 26.2763 22.3148 24.419 22.1868" fill="#F5821F"/>
<path d="M4.78724 9.73483C4.51908 9.73401 4.25144 9.75922 3.98802 9.81013C3.21057 10.0018 2.48699 10.3721 1.87307 10.8924C1.25915 11.4127 0.771327 12.0691 0.447314 12.811C0.1233 13.5529 -0.0282618 14.3604 0.00433561 15.1711C0.036933 15.9818 0.252794 16.7741 0.635292 17.4868C1.4317 18.8047 3.43112 20.4247 8.44908 20.6271C9.82841 20.6836 14.0268 20.8568 14.7378 19.2283C15.4488 17.5997 12.5017 14.5649 11.5335 13.5652C8.57438 10.5161 6.32066 9.73389 4.78724 9.73389" fill="#F05921"/>
<path d="M31.33 9.81016C31.0664 9.75998 30.7989 9.73479 30.5308 9.73486C28.9983 9.73486 26.7436 10.5171 23.7863 13.568C22.8182 14.5658 19.8701 17.6036 20.5812 19.2311C21.2922 20.8587 25.4915 20.6864 26.8699 20.6281C31.8878 20.4247 33.8891 18.8094 34.6837 17.4878C35.0662 16.7751 35.282 15.9828 35.3146 15.1721C35.3472 14.3614 35.1956 13.5539 34.8716 12.812C34.5476 12.0701 34.0598 11.4137 33.4459 10.8934C32.832 10.373 32.1084 10.0027 31.3309 9.81111" fill="#F05921"/>
</svg>
